<?xml version="1.0" encoding="UTF-8"?>
<svg id="Layer_2" data-name="Layer 2" xmlns="http://www.w3.org/2000/svg" viewBox="0 0 1637.23 933.79">
  <defs>
    <style>
      .cls-1 {
        fill: #43c0db;
      }

      .cls-2 {
        fill: #414042;
      }
    </style>
  </defs>
  <g id="Layer_1-2" data-name="Layer 1">
    <g>
      <g>
        <path class="cls-1" d="M579.96,516.13c-39.07,0-73.36-7.64-102.87-22.93-29.52-15.29-52.34-36.2-68.47-62.74-16.14-26.53-24.2-56.79-24.2-90.77s7.96-64.86,23.89-91.4c15.92-26.53,37.68-47.34,65.29-62.42,27.6-15.07,58.81-22.61,93.63-22.61s63.79,7.12,90.76,21.34c26.96,14.23,48.3,34.61,64.01,61.15,15.7,26.54,23.57,58.28,23.57,95.22,0,3.82-.22,8.18-.64,13.06-.43,4.89-.86,9.45-1.28,13.69H465.31v-57.96h226.12l-38.22,17.2c0-17.83-3.61-33.33-10.83-46.5-7.23-13.16-17.2-23.46-29.94-30.89-12.74-7.42-27.61-11.15-44.59-11.15s-31.96,3.72-44.9,11.15c-12.96,7.44-23.04,17.84-30.26,31.21-7.22,13.38-10.83,29.2-10.83,47.45v15.29c0,18.69,4.14,35.14,12.42,49.36,8.28,14.23,19.96,25.06,35.03,32.48,15.07,7.44,32.8,11.15,53.18,11.15,18.25,0,34.29-2.76,48.09-8.28,13.8-5.51,26.43-13.79,37.9-24.84l52.87,57.33c-15.71,17.83-35.46,31.53-59.24,41.08-23.79,9.55-51.17,14.33-82.17,14.33Z"/>
        <path class="cls-1" d="M1443.58,516.13c-36.52,0-68.9-7.64-97.13-22.93-28.24-15.29-50.54-36.2-66.88-62.74-16.35-26.53-24.52-56.79-24.52-90.77s8.17-64.86,24.52-91.4c16.34-26.53,38.63-47.34,66.88-62.42,28.23-15.07,60.61-22.61,97.13-22.61s68.36,7.54,96.82,22.61c28.44,15.08,50.74,35.78,66.88,62.1,16.13,26.33,24.21,56.91,24.21,91.72s-8.07,64.23-24.21,90.77c-16.14,26.54-38.44,47.45-66.88,62.74-28.45,15.29-60.73,22.93-96.82,22.93Zm0-81.53c16.56,0,31.42-3.82,44.59-11.47,13.16-7.64,23.57-18.57,31.21-32.8,7.64-14.22,11.47-31.1,11.47-50.64s-3.82-36.94-11.47-50.95c-7.64-14.01-18.05-24.84-31.21-32.48-13.17-7.64-28.03-11.47-44.59-11.47s-31.43,3.82-44.59,11.47c-13.17,7.64-23.68,18.47-31.53,32.48-7.86,14.01-11.78,31-11.78,50.95s3.92,36.42,11.78,50.64c7.85,14.23,18.36,25.16,31.53,32.8,13.16,7.64,28.02,11.47,44.59,11.47Z"/>
      </g>
      <g>
        <path class="cls-2" d="M0,926.16v-333.77H160.68c31.15,0,58.09,5.09,80.82,15.26,22.72,10.18,40.29,24.72,52.69,43.63,12.4,18.91,18.59,41.24,18.59,66.99s-6.2,47.92-18.59,66.52c-12.4,18.6-29.97,32.82-52.69,42.68-22.73,9.85-49.67,14.78-80.82,14.78H62.46l50.06-46.25v130.17H0Zm112.52-117.77l-50.06-51.02h91.07c15.57,0,27.1-3.5,34.57-10.49,7.47-6.99,11.21-16.52,11.21-28.61s-3.74-21.61-11.21-28.6c-7.47-6.99-19-10.49-34.57-10.49H62.46l50.06-51.02v180.23Zm87.26,117.77l-82.01-121.59h119.2l82.96,121.59h-120.15Z"/>
        <path class="cls-2" d="M544.28,933.79c-27.34,0-52.53-4.29-75.57-12.87-23.05-8.58-42.99-20.74-59.84-36.48-16.85-15.73-29.96-34.24-39.34-55.55-9.38-21.29-14.06-44.5-14.06-69.61s4.69-48.71,14.06-69.86c9.37-21.13,22.49-39.57,39.34-55.31,16.85-15.73,36.79-27.89,59.84-36.47,23.04-8.58,48.08-12.88,75.1-12.88s52.45,4.29,75.33,12.88c22.88,8.58,42.75,20.74,59.6,36.47,16.84,15.73,29.96,34.18,39.34,55.31,9.37,21.14,14.06,44.42,14.06,69.86s-4.69,48.32-14.06,69.61c-9.38,21.3-22.49,39.81-39.34,55.55-16.85,15.74-36.72,27.9-59.6,36.48-22.89,8.58-47.85,12.87-74.86,12.87Zm-.47-91.07c10.49,0,20.26-1.91,29.32-5.73,9.06-3.81,17-9.3,23.84-16.45,6.83-7.15,12.16-15.89,15.97-26.22,3.81-10.32,5.72-22.01,5.72-35.04s-1.91-24.71-5.72-35.05c-3.81-10.32-9.14-19.07-15.97-26.22-6.84-7.15-14.78-12.64-23.84-16.45-9.06-3.82-18.84-5.73-29.32-5.73s-20.27,1.91-29.33,5.73c-9.06,3.81-17.01,9.3-23.84,16.45-6.84,7.15-12.16,15.9-15.97,26.22-3.81,10.34-5.72,22.02-5.72,35.05s1.91,24.72,5.72,35.04c3.81,10.34,9.13,19.07,15.97,26.22,6.83,7.15,14.78,12.64,23.84,16.45,9.06,3.82,18.84,5.73,29.33,5.73Z"/>
        <path class="cls-2" d="M1284.4,926.16v-333.77h164.5c37.19,0,69.93,6.76,98.22,20.26,28.29,13.51,50.38,32.66,66.27,57.46,15.89,24.79,23.84,54.36,23.84,88.69s-7.95,64.45-23.84,89.4c-15.9,24.95-37.99,44.18-66.27,57.69-28.3,13.51-61.03,20.26-98.22,20.26h-164.5Zm112.52-87.73h47.2c15.89,0,29.8-3.02,41.72-9.06,11.92-6.03,21.22-15.02,27.89-26.94,6.67-11.92,10.01-26.46,10.01-43.63s-3.34-31.15-10.01-42.91c-6.68-11.76-15.98-20.66-27.89-26.7-11.92-6.04-25.83-9.06-41.72-9.06h-47.2v158.3Z"/>
      </g>
      <g>
        <path class="cls-1" d="M1003.16,153.68c-111.36,0-201.63,90.27-201.63,201.62v114.65c0,20.21,16.39,36.59,36.6,36.59,12.94,0,24.32-6.72,30.83-16.87h0s2.22-4,2.22-4l47.35-85.13c16.76-29.73,48-49.88,83.9-50.42v-.03c.25,0,.49,.02,.73,.02,.25,0,.49-.02,.73-.02v.03c35.89,.54,67.14,20.69,83.9,50.42l47.35,85.13,2.22,3.99h0c6.5,10.15,17.88,16.87,30.83,16.87,20.21,0,36.6-16.39,36.6-36.59v-114.65c0-111.36-90.27-201.62-201.63-201.62Z"/>
        <path class="cls-2" d="M1221.61,768.57c-.25-.49-.49-.98-.75-1.47l-170.47-334.59c-9.35-18.12-26.79-30.39-46.83-30.72v-.02c-.14,0-.27,0-.41,0-.14,0-.27,0-.41,0v.02c-20.04,.33-37.47,12.6-46.83,30.72l-170.47,334.59c-.25,.49-.5,.98-.75,1.47-7.57,15.24-11.88,32.76-11.88,51.4,0,58.65,42.68,106.19,95.32,106.19h100.15l13.33-198.11h43.39l13.02,198.11h100.15c52.64,0,95.32-47.54,95.32-106.19,0-18.64-4.31-36.17-11.88-51.4Zm-233.34-139.41l8.25-122.61h13.93l8.06,122.61h-30.24Z"/>
        <path class="cls-2" d="M1051.34,0h-95.89c-27.58,0-49.93,22.35-49.93,49.93v54.91c0,6.37,5.16,11.53,11.53,11.53,1.2,0,2.35-.18,3.43-.52,.18-.06,.36-.12,.53-.18,25.76-8.83,53.39-13.63,82.14-13.63,.08,0,.16,0,.23,0,.08,0,.16,0,.23,0,28.76,0,56.39,4.8,82.14,13.63,.17,.06,.35,.12,.53,.18,1.09,.34,2.24,.52,3.43,.52,6.37,0,11.53-5.16,11.53-11.53V49.93c0-27.58-22.35-49.93-49.93-49.93Z"/>
      </g>
    </g>
  </g>
</svg>